<svg xmlns="http://www.w3.org/2000/svg" width="14" height="15" viewBox="0 0 14 15">
    <g fill="none" fill-rule="evenodd">
        <g fill="#7F8B99">
            <g>
                <path d="M7 18.744c3.866 0 7-3.134 7-7s-3.134-7-7-7-7 3.134-7 7c.004 3.864 3.136 6.996 7 7zm0-13c3.314 0 6 2.686 6 6s-2.686 6-6 6-6-2.686-6-6c.004-3.312 2.688-5.996 6-6zm.5 7c.368 0 .667-.298.667-.667V8.244c0-.276-.224-.5-.5-.5s-.5.224-.5.5v3.5h-2c-.276 0-.5.224-.5.5s.224.5.5.5H7.5z" transform="translate(-208 -406) translate(197 270) translate(11 131.784)"/>
            </g>
        </g>
    </g>
</svg>
