<svg xmlns="http://www.w3.org/2000/svg" width="16" height="15" viewBox="0 0 16 15">
    <g fill="none" fill-rule="evenodd">
        <g fill="#393F47">
            <g>
                <g>
                    <path d="M13.291 7.935H11V6.506c0-.789-.617-1.429-1.375-1.429H5.042c-.759 0-1.375.641-1.375 1.43v1.428H1.375C.617 7.935 0 8.575 0 9.363v7.62c0 .788.617 1.428 1.375 1.428h11.917c.758 0 1.375-.64 1.375-1.429V9.364c0-.788-.617-1.429-1.376-1.429zM4.583 6.506c0-.263.206-.476.458-.476h4.584c.253 0 .458.213.458.476v1.43h-5.5v-1.43zm9.167 10.476c.004.258-.2.471-.459.476H1.375c-.258-.005-.463-.218-.458-.476v-4.285H5.5v.762c0 .368.298.666.667.666H8.5c.368 0 .667-.298.667-.666v-.762h4.583v4.286zm0-5.238H9.167v-.286c0-.368-.299-.667-.667-.667h-.25v2.382H6.417v-1.429H8.25v-.953H6.167c-.369 0-.667.3-.667.667v.286H.917v-2.38c0-.264.205-.477.458-.477h11.917c.253 0 .458.213.458.476v2.381z" transform="translate(-207 -312) translate(197 270) translate(10.667 37.784)"/>
                </g>
            </g>
        </g>
    </g>
</svg>
