<svg xmlns="http://www.w3.org/2000/svg" width="12" height="15" viewBox="0 0 12 15">
    <g fill="none" fill-rule="evenodd">
        <g fill="#7F8B99">
            <g>
                <path d="M5.5 8.244c.828 0 1.5.672 1.5 1.5s-.672 1.5-1.5 1.5-1.5-.672-1.5-1.5.672-1.5 1.5-1.5zm0-1c-1.38 0-2.5 1.12-2.5 2.5 0 1.381 1.12 2.5 2.5 2.5S8 11.125 8 9.744c0-1.38-1.12-2.5-2.5-2.5zm0-2c2.444-.036 4.457 1.913 4.5 4.357 0 .944-.314 1.86-.893 2.606l-.016.021-.016.023L5.5 17.473l-3.575-5.222-.016-.023-.016-.022C1.313 11.461 1 10.546 1 9.601c.043-2.444 2.056-4.392 4.5-4.356zm0-1C2.502 4.206.041 6.604 0 9.601c.001 1.164.388 2.295 1.1 3.215l4.4 6.428 4.4-6.429c.712-.92 1.099-2.05 1.1-3.213-.04-2.998-2.502-5.396-5.5-5.358z" transform="translate(-209 -384) translate(197 270) translate(12.5 109.784)"/>
            </g>
        </g>
    </g>
</svg>
